<svg width="34" height="24" viewBox="0 0 34 24" fill="none" xmlns="http://www.w3.org/2000/svg">
<path fill-rule="evenodd" clip-rule="evenodd" d="M3.52709 0.0707116C3.08083 0.199914 2.64858 0.823916 2.64978 1.33719C2.65098 1.87241 2.70565 1.93971 5.09523 4.34774L7.39539 6.66565L5.09523 8.98356C3.16368 10.9301 2.78345 11.3442 2.7226 11.5683C2.68273 11.715 2.64998 12.3528 2.64978 12.9857L2.64938 14.1363L1.83551 14.1378C1.19 14.1389 0.966105 14.1646 0.753171 14.2617C0.427823 14.4101 0.153368 14.7231 0.0563015 15.0565C0.00727019 15.225 -0.00914003 16.5439 0.00474554 19.2057L0.0250756 23.1078L0.182733 23.3624C0.269435 23.5025 0.461574 23.6976 0.609731 23.796L0.879071 23.9749L11.6801 23.9951C19.2305 24.0092 22.7011 23.9931 23.212 23.9415C24.6867 23.7925 25.8821 23.4501 27.2647 22.7805C31.011 20.9663 33.4959 17.3913 33.9454 13.1691C34.0932 11.7811 33.954 11.2272 33.3648 10.8594C33.1249 10.7097 33.043 10.7 31.8489 10.6802L30.5866 10.6593L27.9955 8.06847C25.8094 5.88256 25.3629 5.46621 25.1387 5.40497C24.9709 5.35915 24.0163 5.3322 22.5495 5.332L20.226 5.3316L17.633 2.73648C15.4443 0.5459 14.9986 0.130077 14.7743 0.0687773C14.4343 -0.0241392 3.84839 -0.0223383 3.52709 0.0707116ZM15.1065 3.99755L16.434 5.3316H13.1453H9.85665L8.52915 3.99755L7.20165 2.6635H10.4903H13.779L15.1065 3.99755ZM25.4709 9.33375L26.7984 10.6678L24.4737 10.6682C22.9919 10.6684 22.0526 10.6951 21.8832 10.7418C21.6642 10.8022 21.3251 11.1068 19.9537 12.4757L18.2899 14.1363H11.7984H5.30691V13.3529V12.5696L7.58208 10.2846L9.85718 7.9997H17.0003H24.1434L25.4709 9.33375ZM31.2178 13.4941C31.2178 13.7739 30.9013 14.9153 30.6566 15.5185C30.1605 16.7406 29.429 17.8034 28.4171 18.7721C27.1537 19.9818 25.7261 20.7383 23.9228 21.1538L23.2784 21.3023L12.9639 21.3228L2.64938 21.3435V19.0749V16.8064L10.9375 16.7887L19.2257 16.7711L19.4914 16.6256C19.6376 16.5456 20.4595 15.7727 21.318 14.908L22.8787 13.3359H27.0482H31.2178V13.4941Z" fill="#205694"/>
</svg>
