<svg width="30" height="28" viewBox="0 0 30 28" fill="none" xmlns="http://www.w3.org/2000/svg">
<path fill-rule="evenodd" clip-rule="evenodd" d="M9.375 0.0283985C5.60994 0.402217 2.40393 2.70965 0.867422 6.1512C-0.243926 8.64071 -0.277031 11.6463 0.779355 14.1515L0.981035 14.6297L0.490547 17.0796C0.220723 18.427 0 19.5906 0 19.6653C0 19.9152 0.223008 20.2572 0.467227 20.3818C0.594375 20.4467 0.758848 20.4996 0.832617 20.4994C0.906445 20.4991 2.0809 20.2791 3.44262 20.0104L5.91838 19.5219L6.54809 19.7738C7.47586 20.1449 8.14664 20.2999 9.58008 20.4741L9.81445 20.5026L9.97658 21.0139C10.4728 22.5787 11.5974 24.2795 12.8739 25.3956C15.8191 27.9709 19.9135 28.6979 23.4545 27.2745L24.0851 27.021L26.5592 27.5101C27.9199 27.7791 29.0936 27.9995 29.1674 28C29.2412 28.0004 29.4056 27.9477 29.5328 27.8828C29.777 27.7581 30 27.4162 30 27.1663C30 27.0916 29.7793 25.928 29.5095 24.5805L29.019 22.1307L29.2209 21.6522C30.7837 17.9497 29.9297 13.5266 27.0915 10.6229C25.3333 8.82407 23.1842 7.81067 20.5078 7.51825L20.1855 7.48309L20.0129 6.9446C19.7833 6.22855 19.1316 4.94565 18.6766 4.31428C16.9393 1.90335 14.3339 0.376901 11.3965 0.0490848C10.9011 -0.00623495 9.83338 -0.0171349 9.375 0.0283985ZM11.8902 1.89333C13.1952 2.14919 14.3774 2.68263 15.4688 3.50815C16.062 3.95687 16.9475 4.89297 17.3575 5.50488C17.7195 6.04507 18.2564 7.11701 18.3171 7.42062C18.3521 7.59578 18.344 7.6075 18.186 7.60873C17.633 7.6129 16.2178 8.05082 15.2344 8.5221C13.1657 9.51346 11.5144 11.1617 10.4849 13.2625C9.74291 14.7767 9.37951 16.4471 9.44525 18.0418L9.47168 18.6831L9.3208 18.6822C9.12252 18.681 8.13557 18.4726 7.76367 18.3534C7.60254 18.3018 7.20193 18.1439 6.8734 18.0025C6.51252 17.8472 6.18785 17.7457 6.05309 17.7461C5.93045 17.7464 4.97314 17.9152 3.92578 18.121C2.87842 18.3268 2.01727 18.4914 2.01211 18.4866C2.00695 18.4819 2.17178 17.6352 2.37832 16.605C2.58492 15.5748 2.75391 14.629 2.75391 14.5031C2.75391 14.3631 2.66549 14.0776 2.52645 13.7683C1.97578 12.5437 1.79197 11.6526 1.79344 10.2152C1.79426 9.35611 1.81775 9.05508 1.91988 8.59295C2.27766 6.97379 2.97398 5.62742 4.04537 4.4834C5.46926 2.96299 7.27869 2.05654 9.43359 1.78404C9.85775 1.73042 11.4118 1.79957 11.8902 1.89333ZM21.3867 9.42034C23.1894 9.80219 24.7109 10.6562 25.9546 11.9844C27.0268 13.1292 27.7255 14.4809 28.0792 16.0939C28.2464 16.857 28.2596 18.5118 28.1047 19.2911C27.9695 19.9711 27.755 20.6435 27.4736 21.2693C27.3345 21.5786 27.2461 21.8641 27.2461 22.0041C27.2461 22.13 27.4151 23.0758 27.6217 24.106C27.8282 25.1361 27.993 25.9828 27.9879 25.9874C27.9827 25.992 27.1221 25.8272 26.0753 25.6211C25.0286 25.4151 24.0697 25.2465 23.9444 25.2465C23.8058 25.2465 23.5188 25.3355 23.2109 25.474C22.0302 26.005 21.0774 26.2058 19.7168 26.2103C17.9038 26.2163 16.4664 25.7841 14.9383 24.7735C14.2672 24.3297 13.1062 23.1858 12.6923 22.5605C12.0177 21.5414 11.5558 20.4333 11.3288 19.2894C11.172 18.4988 11.1861 16.8563 11.3566 16.0643C11.5966 14.9492 12.0076 13.9733 12.6475 12.9988C13.0528 12.3815 14.2777 11.142 14.8668 10.753C16.0504 9.97137 17.2905 9.49301 18.6045 9.3114C19.238 9.22379 20.736 9.28245 21.3867 9.42034Z" fill="black"/>
</svg>
