<svg width="20" height="22" viewBox="0 0 20 22" fill="none" xmlns="http://www.w3.org/2000/svg">
<path fill-rule="evenodd" clip-rule="evenodd" d="M9.08155 0.0472385C7.02936 0.266524 5.06053 1.26122 3.7419 2.74503C2.16687 4.51728 1.50364 6.83052 1.93255 9.05582C2.37948 11.3749 4.01474 14.1016 6.66998 16.9553C7.57654 17.9297 9.84571 20.0284 9.99258 20.0284C10.0722 20.0284 11.3268 18.9306 12.0699 18.2107C16.0269 14.3772 18.1835 10.6796 18.1865 7.72365C18.1872 6.96801 18.0336 6.07419 17.7714 5.30867C17.5986 4.80421 17.1286 3.90511 16.7822 3.41655C15.1065 1.05293 12.0766 -0.27275 9.08155 0.0472385ZM11.2759 1.84695C12.5465 2.09916 13.5312 2.608 14.4775 3.50148C15.0647 4.05584 15.3509 4.42452 15.6958 5.07129C16.1548 5.93214 16.3407 6.70338 16.338 7.73607C16.3359 8.55003 16.2533 9.00734 15.9566 9.84872C15.1943 12.0105 13.1772 14.7526 10.5392 17.2132L9.98621 17.729L9.13555 16.9107C7.77923 15.6061 6.75069 14.4302 5.80985 13.1086C4.69914 11.5485 4.05481 10.2306 3.74791 8.89138C3.60373 8.26202 3.60337 7.17956 3.74718 6.54603C3.93298 5.72769 4.24324 5.03738 4.74303 4.33048C5.01987 3.93893 5.71898 3.24772 6.13987 2.94948C7.02617 2.32146 8.09782 1.90459 9.18189 1.76619C9.68132 1.70245 10.7568 1.74393 11.2759 1.84695ZM9.2063 3.50315C8.26527 3.67151 7.44229 4.07888 6.77997 4.70415C5.00285 6.38189 5.00303 9.09016 6.78042 10.7681C7.34964 11.3055 8.1423 11.7286 8.92494 11.9127C9.46976 12.0408 10.4339 12.0504 10.9709 11.933C13.8585 11.3015 15.3762 8.30668 14.0626 5.83187C13.4577 4.6922 12.3688 3.86832 11.062 3.56152C10.5726 3.44668 9.67913 3.41857 9.2063 3.50315ZM10.6478 5.24214C11.1621 5.36635 11.5114 5.55714 11.9057 5.92944C12.3001 6.30173 12.5022 6.63148 12.6337 7.11698C12.7984 7.72481 12.7122 8.3867 12.3947 8.95301C12.1976 9.30464 11.6461 9.8262 11.2811 10.0062C10.6758 10.3047 9.9782 10.3849 9.33632 10.23C8.82205 10.1058 8.47278 9.915 8.07843 9.5427C7.68408 9.17041 7.48199 8.84066 7.35041 8.35516C7.18615 7.74875 7.27143 7.08939 7.58792 6.51913C7.78159 6.17013 8.33369 5.64903 8.70378 5.46598C9.30773 5.16727 10.0051 5.08698 10.6478 5.24214ZM2.63957 16.1235C1.67473 16.4573 0.808457 16.9669 0.440422 17.4173C0.337441 17.5433 0.196219 17.7617 0.126609 17.9026C0.0160707 18.1263 0 18.2106 0 18.5671C0 18.9236 0.0160707 19.008 0.126609 19.2316C0.558608 20.1059 1.58291 20.7349 3.39076 21.2361C6.00129 21.9598 9.8748 22.1937 13.2705 21.8326C17.3956 21.394 19.8421 20.2662 19.9921 18.7341C20.0964 17.6678 19.1669 16.7527 17.3387 16.122L16.9686 15.9943L16.6867 16.812C16.5317 17.2618 16.4114 17.6343 16.4195 17.6397C16.4275 17.6451 16.5672 17.6941 16.73 17.7486C17.2026 17.9068 17.7829 18.199 18.0047 18.3904L18.2096 18.5671L18.0145 18.7355C16.9871 19.6221 13.5579 20.2847 9.99208 20.2857C6.4494 20.2867 2.99322 19.6188 1.96965 18.7355L1.77457 18.5671L1.97944 18.3904C2.20129 18.199 2.78157 17.9068 3.25418 17.7486C3.41694 17.6941 3.55675 17.645 3.5649 17.6395C3.57773 17.6307 3.03388 16.0221 3.01207 16.0043C3.00752 16.0006 2.83989 16.0543 2.63957 16.1235Z" fill="#A9AAAE"/>
</svg>
